<?xml version="1.0" encoding="utf-8"?>
<!-- Generator: Adobe Illustrator 19.0.0, SVG Export Plug-In . SVG Version: 6.00 Build 0)  -->
<svg version="1.1" id="Layer_1" xmlns="http://www.w3.org/2000/svg" xmlns:xlink="http://www.w3.org/1999/xlink" x="0px" y="0px"
	 viewBox="422 260.9 1440 320" style="enable-background:new 422 260.9 1440 320;" xml:space="preserve">
<style type="text/css">
	.st0{fill:#FFFFFF;}
</style>
<path class="st0" d="M422,516.9l48-26.7c48-26.3,144-80.3,240-74.6c96,5.3,192,69.3,288,64c96-5.7,192-79.7,288-90.7
	s192,43,288,69.3c96,26.7,192,26.7,240,26.7h48v96h-48c-48,0-144,0-240,0s-192,0-288,0s-192,0-288,0s-192,0-288,0s-192,0-240,0h-48
	V516.9z"/>
</svg>
